# Blender v2.83.3 OBJ File: 'Game.blend'
# www.blender.org
mtllib Пирамида .mtl
o Plane.001
v -1.647642 -3.524899 -2.481198
v 1.147154 -3.524899 -2.478873
v -1.645316 -3.524899 -5.275994
v 1.149480 -3.524899 -5.273669
v -0.249081 -0.897865 -3.877434
vt 0.000000 0.000000
vt 0.000000 1.000000
vt 1.000000 1.000000
vt 1.000000 0.000000
vt 1.000000 1.000000
vt 0.000000 0.000000
vt 1.000000 0.000000
vt 0.000000 1.000000
vn 0.0000 -1.0000 0.0000
vn 0.0007 0.4696 -0.8829
vn -0.0007 0.4696 0.8829
vn 0.8829 0.4696 0.0007
vn -0.8829 0.4696 -0.0007
usemtl (null)
s off
f 1/1/1 3/2/1 4/3/1 2/4/1
f 4/3/2 3/2/2 5/5/2
f 1/1/3 2/4/3 5/6/3
f 2/4/4 4/3/4 5/7/4
f 3/2/5 1/1/5 5/8/5
